<?xml version="1.0" encoding="UTF-8"?>
<svg width="143px" height="16px" viewBox="0 0 143 16" version="1.1" xmlns="http://www.w3.org/2000/svg" xmlns:xlink="http://www.w3.org/1999/xlink">
    <!-- Generator: Sketch 54.1 (76490) - https://sketchapp.com -->
    <title>OAK'S LAB - full (white)</title>
    <desc>Created with Sketch.</desc>
    <g id="Symbols" stroke="none" stroke-width="1" fill="none" fill-rule="evenodd">
        <g id="Desktop-/-Menu" transform="translate(0.000000, -14.000000)" fill="#FFFFFF" fill-rule="nonzero">
            <g id="Group-2">
                <g id="OAK'S-LAB---full-(white)" transform="translate(0.000000, 14.000000)">
                    <path d="M7.86254296,15.7538462 C3.52018039,15.7538462 0,12.2272276 0,7.87692308 C0,3.52661859 3.52018039,-1.42108547e-14 7.86254296,-1.42108547e-14 C12.2049055,-1.42108547e-14 15.7250859,3.52661859 15.7250859,7.87692308 C15.7250859,12.2272276 12.2049055,15.7538462 7.86254296,15.7538462 Z M25.5532646,15.7538462 C21.210902,15.7538462 17.6907216,12.2272276 17.6907216,7.87692308 C17.6907216,3.52661859 21.210902,-1.42108547e-14 25.5532646,-1.42108547e-14 C29.8956272,-1.42108547e-14 33.4158076,3.52661859 33.4158076,7.87692308 C33.4158076,12.2272276 29.8956272,15.7538462 25.5532646,15.7538462 Z M43.2439863,13.2923077 C46.2293605,13.2923077 48.6494845,10.8677574 48.6494845,7.87692308 C48.6494845,4.88608874 46.2293605,2.46153846 43.2439863,2.46153846 C40.258612,2.46153846 37.838488,4.88608874 37.838488,7.87692308 C37.838488,10.8677574 40.258612,13.2923077 43.2439863,13.2923077 Z M43.2439863,15.7538462 C38.9016237,15.7538462 35.3814433,12.2272276 35.3814433,7.87692308 C35.3814433,3.52661859 38.9016237,0 43.2439863,0 C47.5863488,0 51.1065292,3.52661859 51.1065292,7.87692308 C51.1065292,12.2272276 47.5863488,15.7538462 43.2439863,15.7538462 Z M52.1286598,15.5076923 L57.728756,0.344615385 L60.5612371,0.344615385 L66.1829553,15.5076923 L63.7180481,15.5076923 L62.5288385,12.2151385 L55.7179107,12.2151385 L54.528701,15.5076923 L52.1286598,15.5076923 Z M56.4530584,10.1139692 L61.7936907,10.1139692 L59.1990515,2.96566154 L59.0476976,2.96566154 L56.4530584,10.1139692 Z M79.826433,15.5076923 L77.0371959,15.5076923 L72.7127973,8.44603077 L70.8100619,10.6771692 L70.8100619,15.5076923 L68.4748866,15.5076923 L68.4748866,0.344615385 L70.8100619,0.344615385 L70.8100619,7.34129231 L70.9397938,7.34129231 L76.734488,0.344615385 L79.6102131,0.344615385 L74.2695808,6.6048 L79.826433,15.5076923 Z M82.0318763,4.9152 L81.8589003,0.344615385 L83.8913677,0.344615385 L83.7183918,4.9152 L82.0318763,4.9152 Z M91.9131271,15.7892923 C88.6698282,15.7892923 86.3346529,13.7747692 86.3346529,10.8504615 L88.6049622,10.8504615 C88.6265842,12.4100923 89.9022818,13.6448 91.9996151,13.6448 C93.7942405,13.6448 95.0050722,12.8216615 95.0050722,11.4569846 C95.0050722,7.36295385 86.8103368,10.3955692 86.8103368,4.28701538 C86.8103368,1.99089231 88.6698282,0.0630153846 91.8698832,0.0630153846 C94.4429003,0.0630153846 97.0159175,1.44935385 97.0591615,4.61193846 L94.7023643,4.61193846 C94.7023643,3.11729231 93.6861306,2.16418462 91.8482612,2.16418462 C89.9887698,2.16418462 89.12389,3.16061538 89.12389,4.24369231 C89.12389,7.90449231 97.4051134,5.15347692 97.4051134,11.2836923 C97.4051134,13.8180923 95.394268,15.7892923 91.9131271,15.7892923 Z M106.162021,15.5076923 L106.162021,0.344615385 L108.497196,0.344615385 L108.497196,13.4281846 L114.810818,13.4281846 L114.810818,15.5076923 L106.162021,15.5076923 Z M116.173003,15.5076923 L121.7731,0.344615385 L124.605581,0.344615385 L130.227299,15.5076923 L127.762392,15.5076923 L126.573182,12.2151385 L119.762254,12.2151385 L118.573045,15.5076923 L116.173003,15.5076923 Z M120.497402,10.1139692 L125.838034,10.1139692 L123.243395,2.96566154 L123.092041,2.96566154 L120.497402,10.1139692 Z M132.51923,15.5076923 L132.51923,0.344615385 L137.773375,0.344615385 C140.692344,0.344615385 142.378859,2.03421538 142.378859,4.26535385 C142.378859,5.71667692 141.686955,6.84307692 140.54099,7.47126154 L140.54099,7.60123077 C141.535601,7.99113846 142.897787,9.07421538 142.897787,11.1537231 C142.897787,13.9047385 140.735588,15.5076923 138.205814,15.5076923 L132.51923,15.5076923 Z M134.78954,6.73476923 L137.578777,6.73476923 C139.070694,6.73476923 140.065306,5.82498462 140.065306,4.48196923 C140.065306,3.18227692 139.049072,2.33747692 137.622021,2.33747692 L134.78954,2.33747692 L134.78954,6.73476923 Z M134.78954,13.5148308 L137.708509,13.5148308 C139.286914,13.5148308 140.476124,12.7350154 140.476124,11.0020923 C140.476124,9.26916923 139.092316,8.55433846 137.557155,8.55433846 L134.78954,8.55433846 L134.78954,13.5148308 Z" id="Logo"></path>
                </g>
            </g>
        </g>
    </g>
</svg>